<svg xmlns="http://www.w3.org/2000/svg" xmlns:xlink="http://www.w3.org/1999/xlink" version="1.1" id="Layer_1" x="0px" y="0px" width="100px" height="100px" viewBox="0 0 100 100" style="enable-background:new 0 0 100 100;" xml:space="preserve">
<g>
	<path d="M34.413,92.864c0.492,2.264-1.084,4.469-3.523,4.926l0,0c-2.439,0.457-4.817-1.004-5.311-3.268L6.505,7.135   C6.012,4.873,7.59,2.667,10.03,2.209l0,0c2.438-0.458,4.816,1.005,5.311,3.267L34.413,92.864z"/>
	<g>
		<path d="M78.816,9.412c-16.799,1.535-19.801-6.185-35.829-5.96C33.825,3.581,24.723,5.83,20.184,7.5l11.382,52.152    c2.77-0.918,6.838-1.7,12.323-1.323c7.278,0.5,10.003,5.389,26.284,4.25c11.708-0.818,18.17-7.338,18.17-7.338l5.242-51.287    C93.585,3.954,90.32,8.36,78.816,9.412z"/>
	</g>
</g>
</svg>